<svg width="42" height="42" viewBox="0 0 42 42" fill="none" xmlns="http://www.w3.org/2000/svg">
<rect x="2.625" y="2.625" width="36.75" height="36.75" rx="6" fill="url(#paint0_radial_23_33)"/>
<rect x="2.625" y="2.625" width="36.75" height="36.75" rx="6" fill="url(#paint1_radial_23_33)"/>
<rect x="2.625" y="2.625" width="36.75" height="36.75" rx="6" fill="url(#paint2_radial_23_33)"/>
<path d="M30.1875 13.7812C30.1875 14.8686 29.3061 15.75 28.2188 15.75C27.1314 15.75 26.25 14.8686 26.25 13.7812C26.25 12.6939 27.1314 11.8125 28.2188 11.8125C29.3061 11.8125 30.1875 12.6939 30.1875 13.7812Z" fill="white"/>
<path fill-rule="evenodd" clip-rule="evenodd" d="M21 27.5625C24.6244 27.5625 27.5625 24.6244 27.5625 21C27.5625 17.3756 24.6244 14.4375 21 14.4375C17.3756 14.4375 14.4375 17.3756 14.4375 21C14.4375 24.6244 17.3756 27.5625 21 27.5625ZM21 24.9375C23.1746 24.9375 24.9375 23.1746 24.9375 21C24.9375 18.8254 23.1746 17.0625 21 17.0625C18.8254 17.0625 17.0625 18.8254 17.0625 21C17.0625 23.1746 18.8254 24.9375 21 24.9375Z" fill="white"/>
<path fill-rule="evenodd" clip-rule="evenodd" d="M7.875 20.475C7.875 16.0646 7.875 13.8594 8.73332 12.1748C9.48833 10.693 10.693 9.48833 12.1748 8.73332C13.8594 7.875 16.0646 7.875 20.475 7.875H21.525C25.9354 7.875 28.1406 7.875 29.8252 8.73332C31.307 9.48833 32.5117 10.693 33.2667 12.1748C34.125 13.8594 34.125 16.0646 34.125 20.475V21.525C34.125 25.9354 34.125 28.1406 33.2667 29.8252C32.5117 31.307 31.307 32.5117 29.8252 33.2667C28.1406 34.125 25.9354 34.125 21.525 34.125H20.475C16.0646 34.125 13.8594 34.125 12.1748 33.2667C10.693 32.5117 9.48833 31.307 8.73332 29.8252C7.875 28.1406 7.875 25.9354 7.875 21.525V20.475ZM20.475 10.5H21.525C23.7735 10.5 25.302 10.502 26.4835 10.5986C27.6344 10.6926 28.2229 10.863 28.6334 11.0722C29.6213 11.5756 30.4244 12.3787 30.9278 13.3666C31.137 13.7771 31.3074 14.3656 31.4014 15.5165C31.498 16.698 31.5 18.2265 31.5 20.475V21.525C31.5 23.7735 31.498 25.302 31.4014 26.4835C31.3074 27.6344 31.137 28.2229 30.9278 28.6334C30.4244 29.6213 29.6213 30.4244 28.6334 30.9278C28.2229 31.137 27.6344 31.3074 26.4835 31.4014C25.302 31.498 23.7735 31.5 21.525 31.5H20.475C18.2265 31.5 16.698 31.498 15.5165 31.4014C14.3656 31.3074 13.7771 31.137 13.3666 30.9278C12.3787 30.4244 11.5756 29.6213 11.0722 28.6334C10.863 28.2229 10.6926 27.6344 10.5986 26.4835C10.502 25.302 10.5 23.7735 10.5 21.525V20.475C10.5 18.2265 10.502 16.698 10.5986 15.5165C10.6926 14.3656 10.863 13.7771 11.0722 13.3666C11.5756 12.3787 12.3787 11.5756 13.3666 11.0722C13.7771 10.863 14.3656 10.6926 15.5165 10.5986C16.698 10.502 18.2265 10.5 20.475 10.5Z" fill="white"/>
<defs>
<radialGradient id="paint0_radial_23_33" cx="0" cy="0" r="1" gradientUnits="userSpaceOnUse" gradientTransform="translate(15.75 30.1875) rotate(-55.3758) scale(33.4945)">
<stop stop-color="#B13589"/>
<stop offset="0.79309" stop-color="#C62F94"/>
<stop offset="1" stop-color="#8A3AC8"/>
</radialGradient>
<radialGradient id="paint1_radial_23_33" cx="0" cy="0" r="1" gradientUnits="userSpaceOnUse" gradientTransform="translate(14.4375 40.6875) rotate(-65.1363) scale(29.6549)">
<stop stop-color="#E0E8B7"/>
<stop offset="0.444662" stop-color="#FB8A2E"/>
<stop offset="0.71474" stop-color="#E2425C"/>
<stop offset="1" stop-color="#E2425C" stop-opacity="0"/>
</radialGradient>
<radialGradient id="paint2_radial_23_33" cx="0" cy="0" r="1" gradientUnits="userSpaceOnUse" gradientTransform="translate(0.656252 3.9375) rotate(-8.1301) scale(51.0443 10.9178)">
<stop offset="0.156701" stop-color="#406ADC"/>
<stop offset="0.467799" stop-color="#6A45BE"/>
<stop offset="1" stop-color="#6A45BE" stop-opacity="0"/>
</radialGradient>
</defs>
</svg>
