<svg width="40" height="40" viewBox="0 0 40 40" fill="none" xmlns="http://www.w3.org/2000/svg">
<path d="M0 20C0 8.95431 8.95431 0 20 0C31.0457 0 40 8.95431 40 20C40 31.0457 31.0457 40 20 40C8.95431 40 0 31.0457 0 20Z" fill="#FF0000"/>
<path d="M33.6985 13.1304C33.369 11.9065 32.4039 10.9415 31.18 10.612C28.944 10 19.9999 10 19.9999 10C19.9999 10 11.0559 10 8.81985 10.5884C7.61947 10.9179 6.63091 11.9065 6.30139 13.1304C5.71297 15.3664 5.71297 20.0032 5.71297 20.0032C5.71297 20.0032 5.71297 24.6636 6.30139 26.876C6.63091 28.1 7.59593 29.065 8.81985 29.3945C11.0794 30.0065 19.9999 30.0065 19.9999 30.0065C19.9999 30.0065 28.944 30.0065 31.18 29.418C32.4039 29.0885 33.369 28.1235 33.6985 26.8996C34.2869 24.6636 34.2869 20.0268 34.2869 20.0268C34.2869 20.0268 34.3104 15.3664 33.6985 13.1304Z" fill="white"/>
<path d="M17.152 24.287L24.5897 20.0032L17.152 15.7195V24.287Z" fill="#FF0000"/>
</svg>
