<svg width="50" height="81" viewBox="0 0 50 81" fill="none" xmlns="http://www.w3.org/2000/svg">
<path fill-rule="evenodd" clip-rule="evenodd" d="M40.498 78.6435C40.4984 78.9518 40.438 79.2571 40.3202 79.542C40.2024 79.8269 40.0295 80.0857 39.8115 80.3037C39.5935 80.5217 39.3347 80.6946 39.0498 80.8124C38.7649 80.9302 38.4596 80.9906 38.1513 80.9902L11.6348 80.9902C11.3265 80.9906 11.0212 80.9302 10.7363 80.8124C10.4514 80.6946 10.1925 80.5217 9.97454 80.3037C9.75655 80.0857 9.58371 79.8269 9.46592 79.542C9.34812 79.2571 9.28768 78.9518 9.28808 78.6435L9.28808 66.0349L1.0547 52.306C0.427507 51.2609 0.082763 50.0707 0.054292 48.8521C0.025821 47.6336 0.314594 46.4286 0.892287 45.3553L24.893 0.777771L48.8971 45.3586C49.4736 46.4311 49.7617 47.6349 49.7332 48.8521C49.7047 50.0693 49.3607 51.2583 48.7347 52.3027L40.498 66.0283L40.498 78.6435ZM36.8255 63.0385L44.7141 49.893C44.9236 49.5441 45.0387 49.1467 45.048 48.7399C45.0573 48.3331 44.9605 47.9308 44.7672 47.5728L24.8964 10.6651L5.01892 47.5794C4.8279 47.9365 4.73269 48.3371 4.74256 48.742C4.75244 49.1468 4.86707 49.5423 5.07527 49.8897L12.9639 63.0418L36.8288 63.0418L36.8255 63.0385Z" fill="#00C4F0"/>
</svg>
