<svg width="20" height="20" viewBox="0 0 20 20" fill="none" xmlns="http://www.w3.org/2000/svg">
<path d="M18.75 2.99902H15.191C14.652 2.99902 14.175 2.65502 14.005 2.14502L13.689 1.19604C13.45 0.480045 12.783 0 12.029 0H7.46997C6.71597 0 6.049 0.480021 5.81 1.19702L5.49402 2.14502C5.32402 2.65602 4.84698 3 4.30798 3H0.75C0.336 3 0 3.336 0 3.75C0 4.164 0.336 4.5 0.75 4.5H2.04797L2.815 16C2.946 17.963 4.58901 19.5 6.55701 19.5H12.944C14.911 19.5 16.555 17.962 16.686 16L17.453 4.5H18.75C19.164 4.5 19.5 4.164 19.5 3.75C19.5 3.336 19.164 2.99902 18.75 2.99902ZM7.23297 1.67004C7.26697 1.56804 7.36197 1.49902 7.46997 1.49902H12.029C12.137 1.49902 12.232 1.56807 12.266 1.66907L12.582 2.61804C12.626 2.75004 12.681 2.87705 12.743 2.99805H6.755C6.817 2.87605 6.87202 2.75006 6.91602 2.61706L7.23297 1.67004ZM15.188 15.899C15.11 17.077 14.124 17.999 12.943 17.999H6.55603C5.37603 17.999 4.38897 17.077 4.31097 15.899L3.55103 4.49902H4.30798C4.41498 4.49902 4.52 4.486 4.625 4.474C4.667 4.481 4.70502 4.49902 4.74902 4.49902H14.749C14.793 4.49902 14.831 4.481 14.873 4.474C14.978 4.486 15.082 4.49902 15.19 4.49902H15.947L15.188 15.899ZM12.5 8.74902V13.749C12.5 14.163 12.164 14.499 11.75 14.499C11.336 14.499 11 14.163 11 13.749V8.74902C11 8.33502 11.336 7.99902 11.75 7.99902C12.164 7.99902 12.5 8.33502 12.5 8.74902ZM8.5 8.74902V13.749C8.5 14.163 8.164 14.499 7.75 14.499C7.336 14.499 7 14.163 7 13.749V8.74902C7 8.33502 7.336 7.99902 7.75 7.99902C8.164 7.99902 8.5 8.33502 8.5 8.74902Z" fill="#F44336"/>
</svg>
