<svg width="45" height="45" viewBox="0 0 45 45" fill="none" xmlns="http://www.w3.org/2000/svg">
<path d="M22.5 0C10.0938 0 0 10.0938 0 22.5C0 34.9062 10.0938 45 22.5 45C34.9062 45 45 34.9062 45 22.5C45 10.0938 34.9062 0 22.5 0ZM22.5 41.5385C12.0023 41.5385 3.46154 32.9977 3.46154 22.5C3.46154 12.0023 12.0023 3.46154 22.5 3.46154C32.9977 3.46154 41.5385 12.0023 41.5385 22.5C41.5385 32.9977 32.9977 41.5385 22.5 41.5385ZM24.8077 31.7308C24.8077 33.0046 23.7738 34.0385 22.5 34.0385C21.2262 34.0385 20.1923 33.0046 20.1923 31.7308C20.1923 30.4569 21.2262 29.4231 22.5 29.4231C23.7738 29.4231 24.8077 30.4569 24.8077 31.7308ZM20.7692 22.5V13.2692C20.7692 12.3138 21.5446 11.5385 22.5 11.5385C23.4554 11.5385 24.2308 12.3138 24.2308 13.2692V22.5C24.2308 23.4554 23.4554 24.2308 22.5 24.2308C21.5446 24.2308 20.7692 23.4554 20.7692 22.5Z" fill="#F44336"/>
</svg>
