<svg width="55" height="55" viewBox="0 0 55 55" fill="none" xmlns="http://www.w3.org/2000/svg">
<path d="M48.9976 23.0678C45.984 18.0491 39.2282 9.625 27.8478 9.625C16.4696 9.625 9.71151 18.0468 6.69797 23.0678C5.10068 25.7308 5.10068 29.0376 6.69797 31.7029C9.7138 36.7216 16.4696 45.1458 27.8478 45.1458C39.2282 45.1458 45.984 36.7239 48.9976 31.7029C50.5972 29.0399 50.5972 25.733 48.9976 23.0678ZM46.0505 29.936C43.4105 34.3337 37.5346 41.7106 27.8478 41.7106C18.1609 41.7106 12.2851 34.3337 9.64508 29.936C8.7032 28.3639 8.7032 26.4091 9.64508 24.8393C12.2851 20.4416 18.1632 13.0647 27.8478 13.0647C37.5369 13.0647 43.4128 20.4416 46.0505 24.8393C46.9946 26.4091 46.9946 28.3639 46.0505 29.936ZM27.8478 17.6481C22.4784 17.6481 18.1082 22.0183 18.1082 27.3877C18.1082 32.757 22.4784 37.1272 27.8478 37.1272C33.2171 37.1272 37.5874 32.757 37.5874 27.3877C37.5874 22.0183 33.2171 17.6481 27.8478 17.6481ZM27.8478 33.6897C24.3713 33.6897 21.5457 30.8641 21.5457 27.3877C21.5457 23.9112 24.3713 21.0856 27.8478 21.0856C31.3242 21.0856 34.1499 23.9112 34.1499 27.3877C34.1499 30.8641 31.3242 33.6897 27.8478 33.6897Z" fill="#41416E"/>
</svg>
