<svg width="24" height="20" viewBox="0 0 24 20" fill="none" xmlns="http://www.w3.org/2000/svg">
<path d="M22.0718 1.96031C19.4616 -0.649176 15.2154 -0.649176 12.6059 1.96031L11.9998 2.56606L11.394 1.96031C8.78455 -0.64953 4.53795 -0.64953 1.92847 1.96031C-0.628032 4.51681 -0.644633 8.56914 1.88997 11.3867C4.2017 13.9555 11.0196 19.5054 11.3089 19.7403C11.5053 19.9 11.7416 19.9777 11.9765 19.9777C11.9842 19.9777 11.992 19.9777 11.9994 19.9773C12.2424 19.9886 12.4872 19.9053 12.6899 19.7403C12.9792 19.5054 19.7979 13.9555 22.1103 11.3863C24.6445 8.56914 24.6279 4.51681 22.0718 1.96031ZM20.535 9.96889C18.7326 11.9712 13.7782 16.1009 11.9994 17.5663C10.2207 16.1013 5.26732 11.9719 3.46527 9.96925C1.69712 8.00401 1.68052 5.20521 3.42677 3.45896C4.31861 2.56747 5.48984 2.12137 6.66107 2.12137C7.8323 2.12137 9.00354 2.56711 9.89538 3.45896L11.2277 4.79125C11.3863 4.94984 11.5862 5.0445 11.796 5.0777C12.1365 5.15081 12.5059 5.0558 12.7708 4.7916L14.1038 3.45896C15.8879 1.67562 18.7898 1.67598 20.5728 3.45896C22.319 5.20521 22.3024 8.00401 20.535 9.96889Z" fill="white"/>
</svg>
