<svg width="22" height="28" viewBox="0 0 22 28" fill="none" xmlns="http://www.w3.org/2000/svg">
<path d="M19.1023 21.1439L16.0483 23.9599L10.8923 18.2219L12.3262 16.9599L8.71625 12.9179L10.1582 11.6539L6.49425 7.61591L12.2123 2.4679L14.0283 4.45591L17.0943 1.71991L18.9063 3.5979L20.1143 2.5159C19.8443 2.3599 19.5742 2.2159 19.3002 2.0859C17.5582 1.2339 15.6023 0.753906 13.5423 0.753906C6.30825 0.753906 0.40625 6.6539 0.40625 13.8899C0.40625 21.1239 6.30825 27.0239 13.5423 27.0239C15.8923 27.0239 18.1063 26.4019 20.0163 25.3119C20.6463 24.9559 21.2202 24.5699 21.7442 24.1639L19.1023 21.1439Z" fill="#858FA4"/>
</svg>
