<svg width="46" height="45" viewBox="0 0 46 45" fill="none" xmlns="http://www.w3.org/2000/svg">
<path fill-rule="evenodd" clip-rule="evenodd" d="M30.213 5.99446C29.433 5.5065 28.5733 5.13522 27.6588 4.90263C26.5658 4.62468 25.3025 4.6248 23.1709 4.62499L23 4.625L22.8292 4.62499C20.6975 4.6248 19.4342 4.62468 18.3413 4.90263C15.4964 5.62612 13.1831 7.69155 12.1432 10.4366C11.7437 11.4912 11.6012 12.7464 11.3608 14.8645L11.3415 15.0343L10.8882 19.0258C10.7034 20.6529 10.6217 21.3327 10.4165 21.9718C10.3866 22.0649 10.3548 22.1574 10.321 22.2492C10.0892 22.879 9.73501 23.465 8.87889 24.8609L6.76558 28.3065L6.72733 28.3689L6.72732 28.3689C6.34672 28.9893 6.00384 29.5482 5.80353 30.0181C5.59416 30.5092 5.41694 31.1832 5.79128 31.8519C6.16561 32.5206 6.83277 32.7219 7.36092 32.8002C7.86619 32.8752 8.52189 32.8751 9.2497 32.875H9.24972L9.3229 32.875H36.6771L36.7503 32.875H36.7503C37.4781 32.8751 38.1338 32.8752 38.6391 32.8002C39.1673 32.7219 39.8344 32.5206 40.2088 31.8519C40.5831 31.1832 40.4059 30.5092 40.1965 30.0181C39.9962 29.5482 39.6533 28.9893 39.2727 28.3689L39.2345 28.3065L37.1211 24.8609C36.265 23.465 35.9108 22.879 35.679 22.2492C35.6453 22.1574 35.6134 22.0649 35.5835 21.9718C35.3783 21.3327 35.2966 20.6529 35.1118 19.0258L34.9933 17.9825C34.8302 17.9941 34.6657 18 34.5 18C33.9733 18 33.4585 17.9404 32.9629 17.8273L33.1246 19.2515L33.1371 19.3613C33.3056 20.8462 33.4063 21.733 33.6793 22.5831C33.7177 22.7029 33.7586 22.8218 33.8021 22.9398C34.1104 23.7777 34.5771 24.5385 35.3585 25.8124L35.4163 25.9066L37.5296 29.3522C37.9608 30.0552 38.2218 30.4859 38.3567 30.8023L38.3638 30.8191L38.3458 30.8219C38.0054 30.8723 37.5019 30.875 36.6771 30.875H9.3229C8.49813 30.875 7.99459 30.8723 7.65427 30.8219L7.63627 30.8191L7.64334 30.8023C7.77825 30.4859 8.03925 30.0552 8.47046 29.3522L10.5838 25.9066L10.6415 25.8124C11.423 24.5385 11.8896 23.7777 12.198 22.9398C12.2414 22.8218 12.2823 22.7029 12.3208 22.5831C12.5937 21.733 12.6944 20.8463 12.8629 19.3613L12.8754 19.2515L13.3288 15.26C13.5944 12.9215 13.7141 11.9354 14.0135 11.1451C14.8223 9.01009 16.6215 7.40365 18.8342 6.84094C19.6532 6.63266 20.6465 6.625 23 6.625C25.3535 6.625 26.3468 6.63266 27.1658 6.84094C27.7492 6.98929 28.3038 7.21018 28.8191 7.49418C29.2054 6.92616 29.6765 6.42084 30.213 5.99446ZM32.5042 8.04771C31.9127 8.4013 31.4267 8.90735 31.1034 9.51001C31.4651 10.0076 31.7635 10.5563 31.9866 11.1451C32.2512 11.8437 32.3755 12.6953 32.5842 14.4988C33.1478 14.8176 33.8021 15 34.5 15C34.5517 15 34.6031 14.999 34.6543 14.997L34.6392 14.8645V14.8645C34.3988 12.7464 34.2564 11.4912 33.8569 10.4366C33.5265 9.56466 33.0677 8.76129 32.5042 8.04771ZM38.4261 31.0067C38.4263 31.0115 38.4267 31.0141 38.4269 31.0142C38.427 31.0143 38.427 31.0135 38.4268 31.0119C38.4267 31.0107 38.4265 31.009 38.4261 31.0067ZM38.5563 30.7742C38.5604 30.7718 38.5629 30.7708 38.5631 30.7709C38.5632 30.771 38.5612 30.7722 38.5563 30.7742ZM7.43698 30.7709C7.43716 30.7708 7.43959 30.7718 7.44373 30.7742C7.43886 30.7722 7.43679 30.771 7.43698 30.7709ZM7.57392 31.0067C7.57376 31.0115 7.57334 31.0141 7.57318 31.0142C7.57302 31.0143 7.5731 31.012 7.57392 31.0067Z" fill="#004D40"/>
<path d="M17.4459 33.1213C17.7735 34.9154 18.4954 36.5007 19.4996 37.6314C20.5038 38.7621 21.7342 39.375 23 39.375C24.2658 39.375 25.4962 38.7621 26.5004 37.6314C27.5046 36.5007 28.2265 34.9154 28.5541 33.1213" stroke="#004D40" stroke-width="2" stroke-linecap="round"/>
<path d="M34.5 15.5C36.8828 15.5 38.8333 13.6075 38.8333 11.25C38.8333 8.89249 36.8828 7 34.5 7C32.1171 7 30.1666 8.89249 30.1666 11.25C30.1666 13.6075 32.1171 15.5 34.5 15.5Z" fill="#FF0000" stroke="#FF0000"/>
</svg>
