<svg width="45" height="45" viewBox="0 0 45 45" fill="none" xmlns="http://www.w3.org/2000/svg">
<path d="M32.9538 16.6592C33.63 17.3354 33.63 18.4316 32.9538 19.1078L21.4154 30.6462C21.0785 30.9831 20.6354 31.1538 20.1923 31.1538C19.7492 31.1538 19.3062 30.9855 18.9692 30.6462L12.0462 23.7231C11.37 23.047 11.37 21.9508 12.0462 21.2746C12.7223 20.5984 13.8185 20.5984 14.4946 21.2746L20.1946 26.9745L30.51 16.6592C31.1839 15.9854 32.2777 15.9854 32.9538 16.6592ZM45 22.5C45 34.9062 34.9062 45 22.5 45C10.0938 45 0 34.9062 0 22.5C0 10.0938 10.0938 0 22.5 0C34.9062 0 45 10.0938 45 22.5ZM41.5385 22.5C41.5385 12.0023 32.9977 3.46154 22.5 3.46154C12.0023 3.46154 3.46154 12.0023 3.46154 22.5C3.46154 32.9977 12.0023 41.5385 22.5 41.5385C32.9977 41.5385 41.5385 32.9977 41.5385 22.5Z" fill="#06E775"/>
</svg>
