<svg width="38" height="38" viewBox="0 0 38 38" fill="none" xmlns="http://www.w3.org/2000/svg">
<path d="M32.708 5.29238C31.3384 3.9228 29.5175 3.16748 27.5811 3.16748C25.6446 3.16748 23.8239 3.9228 22.4543 5.29238L5.77698 21.9696C5.0724 22.6741 4.61321 23.5656 4.45013 24.5473L3.19933 32.049C3.07267 32.809 3.32286 33.5897 3.86595 34.1327C4.3172 34.584 4.9299 34.8326 5.55848 34.8326C5.6899 34.8326 5.81971 34.8215 5.95113 34.7994L13.453 33.5485C14.4347 33.3854 15.3261 32.9262 16.0307 32.2216L32.708 15.5444C34.0775 14.1748 34.8328 12.3524 34.8328 10.4175C34.8328 8.48111 34.0775 6.66196 32.708 5.29238ZM13.7918 29.986C13.5575 30.2203 13.2598 30.374 12.9337 30.4278L6.50216 31.4997L7.57408 25.0682C7.62792 24.742 7.78149 24.4444 8.01582 24.21L20.5337 11.6922L26.3097 17.4681L13.7918 29.986ZM30.4691 13.3072L28.5485 15.2276L22.7725 9.45172L24.6931 7.53112C25.4642 6.76003 26.4917 6.33415 27.5811 6.33415C28.672 6.33415 29.698 6.76003 30.4691 7.53112C31.2402 8.3022 31.6661 9.32816 31.6661 10.4191C31.6661 11.51 31.2402 12.5361 30.4691 13.3072Z" fill="#41416E"/>
</svg>
