<svg width="20" height="20" viewBox="0 0 20 20" fill="none" xmlns="http://www.w3.org/2000/svg">
<path d="M11.4471 17.105C9.54939 17.1046 7.70642 16.4694 6.21158 15.3004L1.51173 20L0 18.4883L4.69984 13.7888C3.53023 12.2938 2.89456 10.4505 2.8941 8.55249C2.8941 3.83686 6.73117 0 11.4471 0C16.1629 0 20 3.83686 20 8.55249C20 13.2681 16.1629 17.105 11.4471 17.105ZM11.4471 2.13812C7.90934 2.13812 5.03234 5.01497 5.03234 8.55249C5.03234 12.09 7.90934 14.9669 11.4471 14.9669C14.9848 14.9669 17.8618 12.09 17.8618 8.55249C17.8618 5.01497 14.9848 2.13812 11.4471 2.13812Z" fill="#858FA4" fill-opacity="0.7"/>
</svg>
