<svg width="72" height="72" viewBox="0 0 72 72" fill="none" xmlns="http://www.w3.org/2000/svg">
<path d="M64.575 42.5565C63.7403 41.7768 62.6515 41.3473 61.5094 41.3473C60.2918 41.3473 59.1525 41.8254 58.3014 42.6937L52.5564 48.552H44.1206C44.7132 47.7638 45.02 46.8058 44.9926 45.8006C44.9277 43.4496 42.9275 41.537 40.534 41.537H30.7605C29.9169 41.537 29.0972 41.7116 28.3236 42.0563L21.1962 45.2355H17.9626V44.4573C17.9626 43.9718 17.5691 43.5784 17.0837 43.5784H13.4345C12.9491 43.5784 12.5556 43.9718 12.5556 44.4573C12.5556 44.9428 12.9491 45.3362 13.4345 45.3362H16.2048V64.2422H7.75793V45.3364H9.33293C9.81832 45.3364 10.2118 44.943 10.2118 44.4574C10.2118 43.9719 9.81832 43.5785 9.33293 43.5785H6.87891C6.39352 43.5785 6 43.9719 6 44.4574V65.1211C6 65.6066 6.39352 66 6.87891 66H17.0836C17.569 66 17.9625 65.6066 17.9625 65.1211V64.8516H27.3809C28.4845 64.8516 29.587 64.7172 30.6577 64.452L45.2205 60.8461C45.6918 60.7294 45.9791 60.2529 45.8625 59.7817C45.7459 59.3105 45.2693 59.0232 44.7981 59.1398L30.2352 62.7456C29.3026 62.9767 28.3423 63.0938 27.381 63.0938H17.9626V46.9934H21.3833C21.5067 46.9934 21.6287 46.9674 21.7413 46.9172L29.0393 43.662C29.586 43.4186 30.165 43.2951 30.7605 43.2951H40.534C41.9846 43.2951 43.1966 44.4409 43.2355 45.849C43.255 46.5665 42.9909 47.2439 42.4918 47.7567C41.9926 48.2697 40.6017 48.5526 40.5987 48.5526H33.9157C33.4303 48.5526 33.0368 48.946 33.0368 49.4315C33.0368 49.917 33.4303 50.3104 33.9157 50.3104L52.9253 50.3099C53.1614 50.3099 53.3875 50.2149 53.5528 50.0464L59.5563 43.9245C60.0743 43.3961 60.7678 43.1052 61.5093 43.1052C62.2043 43.1052 62.8669 43.3665 63.3746 43.8409C64.4753 44.8698 64.5346 46.6028 63.507 47.704L57.6641 53.964C56.0914 55.6548 54.0734 56.8424 51.8282 57.3986L48.7789 58.1533C48.3077 58.2699 48.0203 58.7465 48.1369 59.2176C48.236 59.6179 48.5947 59.8855 48.9893 59.8855C49.0593 59.8855 49.1303 59.8771 49.2012 59.8595L52.2505 59.1048C54.8282 58.4664 57.1452 57.1027 58.95 55.1623L64.7919 48.9033C66.4806 47.094 66.3832 44.247 64.575 42.5565Z" fill="#F53B49"/>
<path d="M41.9172 39.4828C51.1484 39.4828 58.6586 31.9726 58.6586 22.7415C58.6586 18.8783 57.306 15.1071 54.8501 12.1225C54.5418 11.7479 53.9879 11.6938 53.613 12.0023C53.2382 12.3108 53.1843 12.8646 53.4927 13.2395C55.6903 15.9103 56.9008 19.285 56.9008 22.7416C56.9008 31.0036 50.1791 37.7251 41.9172 37.7251C33.6552 37.7251 26.9336 31.0036 26.9336 22.7416C26.9337 14.4793 33.6552 7.75781 41.9172 7.75781C45.0829 7.75781 48.1114 8.7375 50.6753 10.5912C51.0687 10.8755 51.6181 10.7872 51.9025 10.3937C52.1869 10.0004 52.0986 9.45094 51.7052 9.16652C48.8397 7.095 45.4551 6 41.9172 6C32.686 6 25.1758 13.5102 25.1758 22.7414C25.1759 31.9726 32.686 39.4828 41.9172 39.4828Z" fill="#F53B49"/>
<path d="M48.6705 12.3788L45.7437 14.18C45.5875 14.11 45.4297 14.0445 45.2708 13.9835L44.475 10.641C44.3808 10.2452 44.027 9.9657 43.62 9.9657H40.2209C39.8139 9.9657 39.4601 10.2452 39.3659 10.641L38.57 13.9835C38.4111 14.0445 38.2534 14.11 38.0972 14.18L35.1703 12.3788C34.8238 12.1655 34.376 12.2182 34.0882 12.5059L31.6847 14.9095C31.3969 15.1973 31.3444 15.645 31.5577 15.9916L33.3587 18.9184C33.2888 19.0746 33.2232 19.2323 33.1623 19.3913L29.8199 20.1871C29.424 20.2815 29.1445 20.6352 29.1445 21.0421V24.4413C29.1445 24.8483 29.4239 25.2021 29.8199 25.2963L33.1623 26.0921C33.2232 26.2509 33.2889 26.4087 33.3587 26.565L31.5577 29.4918C31.3444 29.8385 31.397 30.2861 31.6847 30.5739L34.0882 32.9775C34.376 33.2652 34.8238 33.3175 35.1703 33.1045L38.0971 31.3033C38.2532 31.3733 38.4109 31.4388 38.5699 31.4998L39.3657 34.8423C39.46 35.2381 39.8138 35.5176 40.2207 35.5176H43.6199C44.0269 35.5176 44.3807 35.2381 44.4749 34.8423L45.2707 31.4998C45.4297 31.4388 45.5876 31.3733 45.7436 31.3033L48.6703 33.1045C49.017 33.3179 49.4646 33.2652 49.7524 32.9775L52.1561 30.5739C52.4439 30.2861 52.4964 29.8385 52.2831 29.4918L50.4819 26.565C50.5519 26.4087 50.6174 26.2509 50.6783 26.0921L54.0207 25.2963C54.4167 25.2021 54.6961 24.8483 54.6961 24.4413V21.0421C54.6961 20.6352 54.4167 20.2815 54.0207 20.1871L50.6783 19.3913C50.6173 19.2323 50.5518 19.0746 50.4819 18.9184L52.283 15.9916C52.4963 15.645 52.4438 15.1973 52.1559 14.9095L49.7523 12.5059C49.4648 12.2182 49.0171 12.1657 48.6705 12.3788ZM48.7006 19.2675C48.8895 19.6353 49.0484 20.0178 49.1729 20.4048C49.2672 20.6971 49.5072 20.9192 49.806 20.9903L52.9386 21.7362V23.7469L49.806 24.4927C49.507 24.5639 49.267 24.7859 49.1729 25.0784C49.0485 25.465 48.8896 25.8477 48.7006 26.2156C48.5602 26.489 48.5728 26.816 48.7338 27.0777L50.4224 29.8216L49.0006 31.2433L46.2566 29.5548C45.9947 29.3936 45.6677 29.3811 45.3945 29.5216C45.0271 29.7103 44.6445 29.8693 44.2572 29.994C43.9648 30.0882 43.7428 30.3282 43.6717 30.6269L42.9258 33.7595H40.915L40.1691 30.6269C40.0979 30.3281 39.876 30.0881 39.5836 29.994C39.1963 29.8693 38.8137 29.7103 38.4463 29.5216C38.1727 29.3807 37.8457 29.3936 37.5841 29.5548L34.8402 31.2433L33.4185 29.8216L35.107 27.0777C35.2682 26.8159 35.2807 26.489 35.1403 26.2156C34.9513 25.8477 34.7924 25.465 34.6679 25.0784C34.5738 24.7859 34.3337 24.5639 34.0349 24.4927L30.9022 23.7469V21.7362L34.0349 20.9903C34.3337 20.9192 34.5737 20.6971 34.6679 20.4048C34.7925 20.0178 34.9514 19.6353 35.1403 19.2675C35.2807 18.9941 35.268 18.6671 35.1069 18.4054L33.4187 15.6615L34.8404 14.2396L37.5844 15.9282C37.8462 16.0891 38.1729 16.102 38.4464 15.9615C38.8146 15.7726 39.1972 15.6136 39.5837 15.4891C39.8761 15.395 40.0982 15.1549 40.1693 14.8562L40.9152 11.7235H42.926L43.6719 14.8562C43.743 15.155 43.9651 15.3951 44.2575 15.4891C44.644 15.6136 45.0266 15.7726 45.3948 15.9615C45.6683 16.102 45.9952 16.0891 46.2568 15.9282L49.0008 14.2396L50.4226 15.6615L48.7341 18.4053C48.5728 18.6671 48.5602 18.9941 48.7006 19.2675Z" fill="#F53B49"/>
<path d="M41.9187 18.4636C39.5598 18.4636 37.6406 20.3828 37.6406 22.7418C37.6406 25.1007 39.5597 27.0198 41.9187 27.0198C44.2777 27.0198 46.1967 25.1007 46.1967 22.7418C46.1968 20.3828 44.2777 18.4636 41.9187 18.4636ZM41.9187 25.262C40.5291 25.262 39.3984 24.1315 39.3984 22.7418C39.3984 21.3521 40.5289 20.2214 41.9187 20.2214C43.3084 20.2214 44.4389 21.3519 44.4389 22.7418C44.439 24.1315 43.3084 25.262 41.9187 25.262Z" fill="#F53B49"/>
</svg>
