<svg width="59" height="59" viewBox="0 0 59 59" fill="#ff0000" xmlns="http://www.w3.org/2000/svg">
<path d="M59 29.5C59 13.1962 45.806 0 29.5 0C13.1963 0 0 13.1939 0 29.5C0 45.3858 12.7031 58.739 29.0265 58.9942C29.3038 59.0067 29.906 58.995 29.9176 58.9949C29.9224 58.995 29.943 58.9947 29.9484 58.9946C46.0519 58.7561 59 45.6333 59 29.5ZM29.5 1.72852C44.8484 1.72852 57.2715 14.1494 57.2715 29.5C57.2715 35.8987 55.1204 41.9661 51.163 46.8795C51.0942 43.7828 49.0863 41.0927 46.1207 40.1537L40.5294 38.3834C40.213 38.1126 40.2963 38.2292 35.1489 35.6789V33.2835C37.3931 31.69 38.9471 29.1746 39.2329 26.2741C40.2985 26.0934 41.1126 25.1637 41.1126 24.0476C41.1126 22.3921 41.1126 16.9497 41.1126 15.2516C41.1126 13.3149 39.537 11.7393 37.6003 11.7393H37.5111C37.4945 11.7393 37.481 11.7258 37.481 11.7092C37.481 9.77245 35.9054 8.19685 33.9687 8.19685H24.843C21.0058 8.19685 17.8841 11.3186 17.8841 15.1557C17.8841 15.633 18.2711 16.02 18.7484 16.02C19.2257 16.02 19.6127 15.633 19.6127 15.1557C19.6127 12.2717 21.9589 9.92537 24.843 9.92537H33.9687C34.9523 9.92537 35.7525 10.7256 35.7525 11.7092C35.7525 12.6789 36.5414 13.4678 37.5111 13.4678H37.6003C38.5839 13.4678 39.3841 14.268 39.3841 15.2516V20.17H38.4186C37.879 20.17 37.4401 19.7311 37.4401 19.1917V18.1833C37.4401 16.2665 35.5688 14.9142 33.749 15.5157C31.009 16.4214 27.9908 16.4216 25.2472 15.5153C23.427 14.9142 21.5564 16.2665 21.5564 18.1829V19.1917C21.5564 19.7312 21.1175 20.1702 20.5781 20.1702H19.6125V19.15C19.6125 18.6727 19.2256 18.2857 18.7483 18.2857C18.271 18.2857 17.884 18.6727 17.884 19.15V24.0477C17.884 25.164 18.698 26.0936 19.7637 26.2744C20.0494 29.1749 21.6036 31.6903 23.8476 33.2837V35.68C18.7108 38.2253 18.7787 38.1182 18.4679 38.3846L12.8794 40.1539C9.91384 41.0929 7.90589 43.7831 7.83709 46.8798C3.8796 41.9661 1.72852 35.8987 1.72852 29.5C1.72852 14.1515 14.1494 1.72852 29.5 1.72852ZM19.5915 45.0659L20.2632 44.3954C20.9642 43.6956 21.1301 42.6337 20.6759 41.7534L19.6104 39.6874L23.1026 37.9717C22.731 39.5261 22.7431 41.2343 22.9221 42.8354C22.9222 42.8367 22.9224 42.8379 22.9225 42.8391C23.3695 46.831 24.9991 51.359 26.6276 55.0302C23.9457 52.3314 20.3617 48.3616 19.4591 45.6097C19.3962 45.4184 19.4471 45.21 19.5915 45.0659ZM19.6124 21.8986H20.578C22.0706 21.8986 23.2848 20.6842 23.2848 19.1916V18.1828C23.2848 17.4487 24 16.9239 24.7083 17.1576C27.7982 18.1782 31.2015 18.1781 34.2914 17.1569C34.9915 16.9256 35.7116 17.4456 35.7116 18.1833V19.1917C35.7116 20.6843 36.9259 21.8986 38.4186 21.8986H39.3841V24.0476C39.3841 24.3398 39.1464 24.5774 38.8541 24.5774C38.1588 24.5774 37.5797 25.1232 37.5358 25.82C37.2691 30.0485 33.7387 33.3608 29.4983 33.3608C25.258 33.3608 21.7274 30.0485 21.4608 25.82C21.4169 25.1233 20.8377 24.5774 20.1424 24.5774C19.8502 24.5774 19.6125 24.3398 19.6125 24.0476V21.8986H19.6124ZM29.4992 57.0739C28.9383 55.9489 28.181 54.3464 27.4235 52.4868L28.8427 46.9049H30.1572L31.5755 52.485C30.8166 54.3485 30.0583 55.9526 29.4992 57.0739ZM28.3631 41.6366C27.8739 42.0452 26.8705 42.8834 26.086 43.5387C25.9222 43.6754 25.6877 43.6746 25.5257 43.5415L24.6122 42.4121C24.4611 40.8971 24.4761 39.2223 24.9493 37.7882L28.3631 41.6366ZM25.804 45.3712C26.0243 45.3712 26.2445 45.3356 26.4574 45.2681L27.2278 46.2418L26.3574 49.6651C25.8589 48.2278 25.4095 46.7292 25.0791 45.2438C25.3132 45.3271 25.5581 45.3712 25.804 45.3712ZM30.3962 45.1765H28.589L27.8857 44.2877L29.594 42.8606L31.1393 44.1819L30.3962 45.1765ZM32.9446 43.4513L30.8172 41.6323L34.0589 37.82C34.5209 39.2441 34.5342 40.8938 34.389 42.3776L33.5059 43.4598C33.342 43.5919 33.1073 43.5904 32.9446 43.4513ZM29.4983 35.0893C30.889 35.0893 32.2164 34.7947 33.4204 34.2652V35.9024L29.5867 40.4111L25.576 35.89V34.2651C26.78 34.7947 28.1074 35.0893 29.4983 35.0893ZM32.6416 49.6626L31.7685 46.2275L32.5535 45.1769C32.7736 45.2498 33.0019 45.2878 33.2305 45.2878C33.4692 45.2878 33.7071 45.2459 33.9353 45.167C33.6055 46.6688 33.1534 48.1865 32.6416 49.6626ZM9.56215 48.8296V47.0437C9.56215 44.6353 11.1049 42.5286 13.401 41.8017L18.0086 40.343C18.0547 40.4506 18.0073 40.3468 19.1397 42.5459C19.2475 42.7547 19.2082 43.0064 19.042 43.1722L18.3703 43.8426C17.7615 44.4503 17.5493 45.3339 17.8166 46.1485C18.9198 49.5111 23.2595 54.1678 26.2379 57.0817C19.9141 56.3463 14.0773 53.4832 9.56215 48.8296ZM32.7601 57.0818C34.3663 55.5106 36.3796 53.423 38.0615 51.3087C38.3586 50.9351 38.2966 50.3914 37.9231 50.0942C37.5495 49.7972 37.0059 49.859 36.7086 50.2326C35.3515 51.9388 33.7649 53.6334 32.3669 55.038C34.0004 51.3574 35.636 46.8141 36.0788 42.8098C36.079 42.8083 36.0792 42.8068 36.0793 42.8054C36.2548 41.2151 36.2652 39.5214 35.8955 37.9718L39.3878 39.6875L38.3222 41.7536C37.8681 42.6341 38.034 43.6957 38.7351 44.3957L39.4067 45.066C39.5511 45.2101 39.6018 45.4185 39.5391 45.6098C39.4037 46.0225 39.1977 46.4861 38.9267 46.9877C38.6999 47.4078 38.8565 47.9321 39.2764 48.1589C39.6964 48.3858 40.2207 48.2292 40.4475 47.8092C40.7673 47.2174 41.0142 46.6585 41.1815 46.1484C41.4488 45.3338 41.2366 44.4503 40.6278 43.8425L39.9563 43.1722C39.7901 43.0063 39.7508 42.7545 39.8584 42.5458C40.9825 40.3627 40.9442 40.4489 40.9898 40.3424L45.5989 41.8016C47.8951 42.5286 49.4377 44.6352 49.4377 47.0437V48.8296C44.9328 53.4728 39.0997 56.3451 32.7601 57.0818Z" fill="ff0000"/>
</svg>
