<svg width="64" height="55" viewBox="0 0 64 55" fill="none" xmlns="http://www.w3.org/2000/svg">
<path d="M62.1389 41.0724C62.6491 41.0724 63.0627 40.659 63.0627 40.1487V38.3621C63.0627 36.5561 61.6837 35.0868 59.9887 35.0868H58.4937V33.1939C58.4937 31.8695 57.4161 30.792 56.0918 30.792H48.6561C47.3316 30.792 46.2542 31.8696 46.2542 33.1939V38.1233C39.6118 37.3484 31.3436 37.3472 24.69 38.1233V33.1939C24.69 31.8695 23.6124 30.792 22.2881 30.792H21.7005C26.7646 27.7082 32.4281 23.5265 36.8438 19.4539L39.7434 23.4402C40.5236 24.513 42.0298 24.7474 43.0988 23.9698L49.112 19.5961C49.112 19.5961 49.112 19.5961 49.112 19.596C50.183 18.817 50.4206 17.3118 49.6415 16.2406L48.5281 14.7098L49.7371 13.8305C51.1079 12.8334 51.3588 10.8341 50.2964 9.37355L45.2822 2.47991C44.2198 1.01962 42.2406 0.64235 40.8698 1.6394L39.6607 2.51895L38.5474 0.988332C37.7684 -0.0829914 36.2632 -0.320338 35.192 0.458582L29.1787 4.83231C28.1078 5.61123 27.8702 7.11648 28.6492 8.18768L31.5488 12.1739C25.7197 15.4555 19.0339 20.3171 14.1099 24.8585L11.977 21.9264C10.7758 20.2751 8.45187 19.9081 6.80079 21.1095L2.8956 23.9499C1.24341 25.1519 0.876982 27.4738 2.07874 29.1262L2.42534 29.6027L1.21644 30.482C-0.181655 31.4988 -0.383529 33.5083 0.657126 34.939L5.67133 41.8324C6.21993 42.5868 7.02398 43.0665 7.88148 43.194V46.8864C7.88148 48.6924 9.26048 50.1618 10.9554 50.1618H12.4504V52.0546C12.4504 53.379 13.528 54.4565 14.8523 54.4565H22.2881C23.6125 54.4565 24.69 53.3789 24.69 52.0546V47.1257C27.3153 47.4312 30.2666 47.6232 33.2979 47.6841C33.3043 47.6844 33.3106 47.6844 33.3169 47.6844C33.8184 47.6844 34.23 47.2829 34.2402 46.7791C34.2505 46.2691 33.8452 45.8472 33.3351 45.837C30.2786 45.7754 27.3094 45.5787 24.69 45.2655V39.9829C31.225 39.1996 39.5836 39.1834 46.2542 39.9829V45.2655C43.635 45.5787 40.6656 45.7754 37.609 45.837C37.099 45.8472 36.6937 46.2691 36.7039 46.779C36.7141 47.2829 37.1255 47.6844 37.6273 47.6844C37.6336 47.6844 37.64 47.6844 37.6462 47.6841C40.6777 47.6232 43.6289 47.4312 46.2542 47.1257V52.0546C46.2542 53.379 47.3318 54.4565 48.6561 54.4565H56.0918C57.4162 54.4565 58.4937 53.3789 58.4937 52.0546V50.1618H59.9887C61.6837 50.1618 63.0627 48.6924 63.0627 46.8864V44.4599C63.0627 43.9497 62.6491 43.5362 62.1389 43.5362C61.6287 43.5362 61.2151 43.9497 61.2151 44.4599V46.8864C61.2151 47.6603 60.6536 48.3142 59.9888 48.3142H58.4938V36.9346H59.9888C60.6535 36.9346 61.2151 37.5884 61.2151 38.3622V40.1488C61.215 40.659 61.6287 41.0724 62.1389 41.0724ZM41.9565 3.13357C42.4939 2.74287 43.333 2.94105 43.7879 3.56687L48.8022 10.4605C49.2574 11.0862 49.1878 11.9454 48.6503 12.3364L47.4413 13.2157C46.6928 12.1862 41.5083 5.05882 40.7475 4.01287L41.9565 3.13357ZM30.1434 7.10108C29.9668 6.85807 30.0227 6.50347 30.2656 6.32672L36.2788 1.95287C36.5228 1.77563 36.8769 1.8329 37.0531 2.07517C37.427 2.58928 46.0442 14.4362 46.4904 15.0498C46.4906 15.05 46.4908 15.0503 46.491 15.0505L48.1473 17.3274C48.324 17.5704 48.2681 17.925 48.0251 18.1018L42.0117 22.4756C41.7676 22.653 41.4166 22.5996 41.2376 22.3533C40.8731 21.8524 30.5832 7.70572 30.1434 7.10108ZM32.6426 13.6781L35.7501 17.9501C30.9439 22.4107 24.2024 27.3419 18.3108 30.6339L15.2039 26.3625C19.9971 21.9135 26.7427 16.9746 32.6426 13.6781ZM7.88148 38.3621V41.2945C7.60669 41.1922 7.35271 41.0027 7.16574 40.7455L2.15153 33.852C1.67549 33.1978 1.7819 32.3555 2.3034 31.9762L3.51231 31.0969C3.65888 31.2985 4.80644 32.876 8.04098 37.323C7.93087 37.673 7.88148 38.0341 7.88148 38.3621ZM12.4504 48.314H10.9554C10.2908 48.314 9.72914 47.6603 9.72914 46.8863C9.72914 46.0517 9.72914 39.232 9.72914 38.362C9.72914 38.0393 9.83568 37.6908 10.0467 37.4172C10.2979 37.0906 10.6378 36.9343 10.9554 36.9343H12.4503V48.314H12.4504ZM12.4504 33.1938V35.0867H10.9554C10.8804 35.0867 10.8061 35.0905 10.7323 35.0963C10.7193 35.0973 10.7062 35.0982 10.6932 35.0995C10.1212 35.1512 9.59353 35.3703 9.15345 35.7109L3.57303 28.0391C2.97049 27.2109 3.15413 26.0466 3.98244 25.444L7.88764 22.6036C8.71225 22.0034 9.88248 22.1878 10.4827 23.0132C11.1553 23.9378 15.4209 29.8022 16.1407 30.7918H14.8522C13.528 30.7918 12.4504 31.8694 12.4504 33.1938ZM22.8424 52.0544C22.8424 52.3548 22.5886 52.6087 22.2882 52.6087H14.8525C14.5521 52.6087 14.2982 52.3548 14.2982 52.0544C14.2982 51.185 14.2982 33.7608 14.2982 33.1939C14.2982 32.8935 14.5521 32.6397 14.8525 32.6397C16.7324 32.6397 17.7703 32.6397 18.3107 32.6397C18.7001 32.6397 18.8312 32.6397 18.8323 32.6397C19.3724 32.6397 20.4097 32.6397 22.2882 32.6397C22.5886 32.6397 22.8424 32.8935 22.8424 33.1939C22.8424 34.3371 22.8424 51.3515 22.8424 52.0544ZM56.6462 52.0544C56.6462 52.3548 56.3923 52.6087 56.0919 52.6087H48.6562C48.3558 52.6087 48.1019 52.3548 48.1019 52.0544V33.1939C48.1019 32.8935 48.3558 32.6397 48.6562 32.6397H56.0919C56.3923 32.6397 56.6462 32.8935 56.6462 33.1939C56.6462 34.3318 56.6462 51.444 56.6462 52.0544Z" fill="#F53B49"/>
</svg>
